# Blender 3.3.0
# www.blender.org
mtllib Player.mtl
o Plane
v -1.000000 0.200000 -1.000000
v -1.000000 0.200000 1.000000
v 1.000000 0.200000 -1.000000
v 1.000000 0.200000 1.000000
v 0.673409 0.200000 -1.000000
v -0.673409 0.200000 -1.000000
v -0.673409 0.200000 1.000000
v 0.673409 0.200000 1.000000
v -1.000000 0.200000 -0.533497
v 1.000000 0.200000 -0.533497
v -0.673409 0.200000 -0.533497
v 0.673409 0.200000 -0.533497
v -0.673409 0.000000 -1.000000
v -1.000000 0.000000 -1.000000
v -1.000000 0.000000 -0.533497
v -1.000000 0.000000 1.000000
v 0.673409 0.000000 1.000000
v 1.000000 0.000000 1.000000
v 1.000000 0.000000 -0.533497
v 1.000000 0.000000 -1.000000
v 0.673409 0.000000 -1.000000
v -0.673409 0.000000 1.000000
v -0.673409 0.000000 -0.533497
v 0.673409 0.000000 -0.533497
vn -0.0000 1.0000 -0.0000
vn -0.0000 -1.0000 -0.0000
vn -1.0000 -0.0000 -0.0000
vn -0.0000 -0.0000 1.0000
vn 1.0000 -0.0000 -0.0000
vn -0.0000 -0.0000 -1.0000
vt 0.000000 0.000000
vt 1.000000 0.000000
vt 0.000000 1.000000
vt 1.000000 1.000000
vt 0.000000 0.836705
vt 0.000000 0.163295
vt 1.000000 0.163295
vt 1.000000 0.836705
vt 0.233251 0.000000
vt 0.233251 1.000000
vt 0.233251 0.163295
vt 0.233251 0.836705
vt 0.000000 0.163295
vt 0.000000 0.000000
vt 0.233251 0.000000
vt 1.000000 0.000000
vt 1.000000 0.836705
vt 1.000000 1.000000
vt 0.233251 1.000000
vt 0.000000 1.000000
vt 0.000000 0.836705
vt 1.000000 0.163295
vt 0.233251 0.163295
vt 0.233251 0.836705
s 0
f 12/12/1 8/8/1 4/4/1 10/10/1
f 9/9/1 2/2/1 7/7/1 11/11/1
f 6/6/1 11/11/1 12/12/1 5/5/1
f 1/1/1 9/9/1 11/11/1 6/6/1
f 5/5/1 12/12/1 10/10/1 3/3/1
f 24/24/2 19/19/2 18/18/2 17/17/2
f 15/15/2 23/23/2 22/22/2 16/16/2
f 13/13/2 21/21/2 24/24/2 23/23/2
f 14/14/2 13/13/2 23/23/2 15/15/2
f 21/21/2 20/20/2 19/19/2 24/24/2
f 12/12/3 24/24/3 17/17/3 8/8/3
f 8/8/4 17/17/4 18/18/4 4/4/4
f 1/1/3 14/14/3 15/15/3 9/9/3
f 2/2/4 16/16/4 22/22/4 7/7/4
f 11/11/4 23/23/4 24/24/4 12/12/4
f 10/10/5 19/19/5 20/20/5 3/3/5
f 4/4/5 18/18/5 19/19/5 10/10/5
f 6/6/6 13/13/6 14/14/6 1/1/6
f 3/3/6 20/20/6 21/21/6 5/5/6
f 7/7/5 22/22/5 23/23/5 11/11/5
f 9/9/3 15/15/3 16/16/3 2/2/3
f 5/5/6 21/21/6 13/13/6 6/6/6
