# Blender 3.3.0
# www.blender.org
mtllib Player.mtl
o Player
v -1.000000 0.200000 -1.000000
v -1.000000 0.200000 1.000000
v 1.000000 0.200000 -1.000000
v 1.000000 0.200000 1.000000
v 0.673409 0.200000 -1.000000
v -0.673409 0.200000 -1.000000
v -0.673409 0.200000 1.000000
v 0.673409 0.200000 1.000000
v -1.000000 0.200000 -0.533497
v 1.000000 0.200000 -0.533497
v -0.673409 0.200000 -0.533497
v 0.673409 0.200000 -0.533497
v -0.673409 0.000000 -1.000000
v -1.000000 0.000000 -1.000000
v -1.000000 0.000000 -0.533497
v -1.000000 -0.000000 1.000000
v 0.673409 -0.000000 1.000000
v 1.000000 -0.000000 1.000000
v 1.000000 0.000000 -0.533497
v 1.000000 0.000000 -1.000000
v 0.673409 0.000000 -1.000000
v -0.673409 -0.000000 1.000000
v -0.673409 0.000000 -0.533497
v 0.673409 0.000000 -0.533497
vn -0.0000 1.0000 -0.0000
vn -0.0000 -1.0000 -0.0000
vn -1.0000 -0.0000 -0.0000
vn -0.0000 -0.0000 1.0000
vn 1.0000 -0.0000 -0.0000
vn -0.0000 -0.0000 -1.0000
vt 0.543748 0.273439
vt 0.000001 0.273439
vt 0.996871 0.273439
vt 0.543748 0.726562
vt 0.000000 0.726562
vt 0.996871 0.726562
vt 0.543748 0.652569
vt 0.543748 0.347432
vt 0.996871 0.347432
vt 0.000000 0.347432
vt 0.649440 0.000000
vt 0.996871 0.652569
vt 0.649439 1.000000
vt 0.000000 0.652569
vt 0.649440 0.273439
vt 0.649439 0.726562
vt 0.649440 0.347432
vt 0.649439 0.652569
vt 0.498435 0.347432
vt 0.543748 0.228127
vt 0.498436 0.273439
vt 0.392744 0.273439
vt 0.649440 0.228127
vt 0.045313 0.273439
vt 0.996871 0.228127
vt 0.694751 1.000000
vt 0.045312 0.652569
vt 0.045312 0.726562
vt 0.996871 0.771875
vt 0.392743 0.726562
vt 0.649439 0.771875
vt 0.543748 0.771874
vt 0.498435 0.726562
vt 0.498435 0.652569
vt 0.045313 0.347432
vt 0.694752 0.000000
vt 0.392744 0.347432
vt 0.694752 0.347432
vt 0.392744 0.652569
vt 0.694752 0.652569
s 0
f 12/18/1 8/12/1 4/6/1 10/16/1
f 9/15/1 2/3/1 7/9/1 11/17/1
f 6/8/1 11/17/1 12/18/1 5/7/1
f 1/1/1 9/15/1 11/17/1 6/8/1
f 5/7/1 12/18/1 10/16/1 3/4/1
f 24/39/2 19/30/2 18/28/2 17/27/2
f 15/22/2 23/37/2 22/35/2 16/24/2
f 13/19/2 21/34/2 24/39/2 23/37/2
f 14/21/2 13/19/2 23/37/2 15/22/2
f 21/34/2 20/33/2 19/30/2 24/39/2
f 12/18/3 24/40/3 17/26/3 8/13/3
f 8/14/4 17/27/4 18/28/4 4/5/4
f 1/1/3 14/20/3 15/23/3 9/15/3
f 2/2/4 16/24/4 22/35/4 7/10/4
f 11/17/4 23/38/4 24/40/4 12/18/4
f 10/16/5 19/31/5 20/32/5 3/4/5
f 4/6/5 18/29/5 19/31/5 10/16/5
f 6/8/6 13/19/6 14/21/6 1/1/6
f 3/4/6 20/33/6 21/34/6 5/7/6
f 7/11/5 22/36/5 23/38/5 11/17/5
f 9/15/3 15/23/3 16/25/3 2/3/3
f 5/7/6 21/34/6 13/19/6 6/8/6
